<svg id="Capa_1" data-name="Capa 1" xmlns="http://www.w3.org/2000/svg" viewBox="0 0 160 60"><defs><style>.cls-1{fill:#fff;}</style></defs><path class="cls-1" d="M124.6,4.17a16.73,16.73,0,1,0,16.72,16.72A16.72,16.72,0,0,0,124.6,4.17Zm0,26.88a10.19,10.19,0,1,1,10.19-10.18A10.18,10.18,0,0,1,124.57,31.05Z"/><path class="cls-1" d="M102.85,22.45a1.23,1.23,0,0,0,1.23-1.2c0-.14,0-.28,0-.43a17.51,17.51,0,0,0-.58-4.5A16.33,16.33,0,0,0,91.92,4.56,15.28,15.28,0,0,0,88.2,4.1,16,16,0,0,0,72.89,16.32a17.51,17.51,0,0,0-.58,4.5c0,.55,0,1.09.07,1.63A16.37,16.37,0,0,0,86,37.38a14.89,14.89,0,0,0,3.73.47A15.66,15.66,0,0,0,102.9,30.4a1.14,1.14,0,0,0-.27-1.52l-.36-.28-3-2.36a1.2,1.2,0,0,0-1.75.3,9.54,9.54,0,0,1-8,4.47,7.56,7.56,0,0,1-.83,0h-.47a9.75,9.75,0,0,1-9.23-7.12A1.1,1.1,0,0,1,80,22.45ZM88.17,10.61a7.56,7.56,0,0,1,.83,0,9.64,9.64,0,0,1,7.39,4.76.61.61,0,0,1-.52.91H81a.91.91,0,0,1-.76-1.42A9.55,9.55,0,0,1,88.17,10.61Z"/><path class="cls-1" d="M67,22.45a1.24,1.24,0,0,0,1.24-1.2v-.43a17.51,17.51,0,0,0-.58-4.5A16.32,16.32,0,0,0,56.08,4.56a15.22,15.22,0,0,0-3.72-.46A16.05,16.05,0,0,0,37.05,16.32a17.51,17.51,0,0,0-.58,4.5c0,.55,0,1.09.07,1.63A16.38,16.38,0,0,0,50.12,37.38a14.78,14.78,0,0,0,3.73.47A15.69,15.69,0,0,0,67.07,30.4a1.16,1.16,0,0,0-.27-1.52l-.37-.28-3-2.36a1.2,1.2,0,0,0-1.75.3,9.54,9.54,0,0,1-8,4.47,7.56,7.56,0,0,1-.83,0h-.46a9.75,9.75,0,0,1-9.24-7.12,1.11,1.11,0,0,1,1.07-1.41ZM52.34,10.61a7.5,7.5,0,0,1,.82,0,9.63,9.63,0,0,1,7.39,4.76.6.6,0,0,1-.52.91H45.2a.92.92,0,0,1-.76-1.42A9.56,9.56,0,0,1,52.34,10.61Z"/><path class="cls-1" d="M25.16,14.89h4.71a.92.92,0,0,0,.91-1.05c-.41-2.72-2.35-9.74-11.52-9.74C7.89,4.1,7.68,14,7.68,14a8.59,8.59,0,0,0,6.9,9c7.62,2,11.41,1.33,11.2,4.22s-2.75,4-6.6,4c-3.53,0-6.18-2-6.6-5.09a1,1,0,0,0-1-.87H7.69a1.79,1.79,0,0,0-1.75,2.13c.7,3.51,3.27,10.1,12.84,10.1,13,0,13.77-8,13.77-11.33s-3.16-7.29-9.39-7.86-9.39-2.17-8.69-4.95,3.74-3,4.83-2.91,4.41.2,4.89,3.63A1,1,0,0,0,25.16,14.89Z"/><polygon class="cls-1" points="141.55 42.77 138.22 55.52 135.44 55.52 133.79 49.2 132.14 55.52 129.36 55.52 126.03 42.77 128.78 42.77 130.75 50.32 132.42 43.94 132.72 42.77 134.86 42.77 135.16 43.94 136.83 50.32 138.8 42.77 141.55 42.77"/><polygon class="cls-1" points="93.62 55.52 93.61 55.52 93.62 55.54 90.87 55.54 86.81 47.91 86.81 55.52 84.06 55.52 84.06 42.77 86.81 42.77 86.81 42.79 86.83 42.79 90.87 50.39 90.87 42.77 93.62 42.77 93.62 55.52"/><polygon class="cls-1" points="74.23 55.52 71.49 55.52 67.72 50.09 66.31 52.11 66.31 55.52 63.56 55.52 63.56 42.77 66.31 42.77 66.31 48.19 66.36 48.13 67.74 46.16 70.11 42.77 72.86 42.77 69.1 48.13 74.23 55.52"/><path class="cls-1" d="M110.15,42.71a6.6,6.6,0,1,0,6.6,6.6A6.6,6.6,0,0,0,110.15,42.71Zm0,10.4a3.79,3.79,0,1,1,3.79-3.79A3.79,3.79,0,0,1,110.13,53.11Z"/><polygon class="cls-1" points="146.22 4.54 144.59 4.54 143.35 4.54 141.72 4.54 141.72 5.78 143.35 5.78 143.35 10.83 144.59 10.83 144.59 5.78 146.22 5.78 146.22 4.54"/><polygon class="cls-1" points="154.09 10.83 152.85 10.83 152.59 7.58 151.45 10.83 150.15 10.83 148.97 7.44 148.69 10.83 147.45 10.83 147.97 4.58 147.97 4.54 149.19 4.54 149.21 4.58 150.8 9.15 152.35 4.73 152.41 4.54 153.57 4.54 153.58 4.73 154.09 10.83"/></svg>