<svg id="Layer_1" data-name="Layer 1" xmlns="http://www.w3.org/2000/svg" viewBox="0 0 86.91 64.05"><defs><style>.cls-1{fill:#656565;}.cls-2{fill:#8c8c8c;opacity:0.83;}</style></defs><path class="cls-1" d="M64.83,18c2.42,6.71,4.85,13.86,7.23,21.36h21.4c-2.38-7.5-4.81-14.66-7.24-21.36Z" transform="translate(-6.54 -17.98)"/><path class="cls-1" d="M25.93,18c4.75,13.14,9.49,27.93,13.91,43.7,1.94,6.93,3.73,13.74,5.35,20.34H66.58c-1.62-6.6-3.4-13.41-5.34-20.34C56.82,45.91,52.08,31.1,47.33,18Z" transform="translate(-6.54 -17.98)"/><path class="cls-2" d="M86.19,18c-4.75,13.14-9.49,27.93-13.91,43.7C70.34,68.61,68.55,75.42,66.93,82H45.53c1.63-6.6,3.41-13.41,5.35-20.34C55.3,45.91,60,31.1,64.79,18Z" transform="translate(-6.54 -17.98)"/><path class="cls-2" d="M47.2,18c-4.75,13.14-9.49,27.93-13.91,43.7C31.35,68.61,29.56,75.42,27.94,82H6.54c1.63-6.6,3.41-13.41,5.35-20.34C16.31,45.91,21.05,31.1,25.8,18Z" transform="translate(-6.54 -17.98)"/></svg>