<svg id="Layer_1" data-name="Layer 1" xmlns="http://www.w3.org/2000/svg" viewBox="0 0 88.21 70.93"><defs><style>.cls-1{fill:#656565;}.cls-2{fill:#8c8c8c;opacity:0.83;}</style></defs><path class="cls-1" d="M27.36,14.53c5.27,14.55,10.52,30.94,15.41,48.41,2.15,7.67,4.13,15.21,5.92,22.53h23.7c-1.8-7.32-3.77-14.86-5.92-22.53C61.58,45.47,56.33,29.07,51.06,14.53Z" transform="translate(-5.89 -14.53)"/><path class="cls-2" d="M94.11,14.53C88.84,29.08,83.59,45.47,78.7,62.94c-2.15,7.67-4.13,15.21-5.92,22.53H49.08c1.8-7.32,3.77-14.86,5.92-22.53,4.89-17.47,10.14-33.87,15.41-48.41Z" transform="translate(-5.89 -14.53)"/><path class="cls-2" d="M50.92,14.53c-5.26,14.55-10.51,30.94-15.4,48.41-2.15,7.67-4.14,15.21-5.93,22.53H5.89c1.81-7.32,3.78-14.86,5.93-22.53C16.71,45.47,22,29.07,27.22,14.53Z" transform="translate(-5.89 -14.53)"/></svg>